# xmcd
# Copyright (C) 1995-1998 Ti Kan
#
# Track frame offsets:
#       150
#       18386
#       37080
#       59203
#       83519
#       109334
#       125488
#       144336
#       168995
#       187034
#
# Disc length: 2758 seconds
#
# Revision: 0
# Processed by: cddbd v1.5.2PL0 Copyright (c) Steve Scherf et al.
# Submitted via: CD-Import v1.0
#
DISCID=8c0ac40a
DTITLE=Chikita Violenta - Chikita Violenta
DYEAR=1900
DGENRE=
TTITLE0=Happy Pills
TTITLE1=In Me ( Chopra || )
TTITLE2=Tomorrow Never Comes
TTITLE3=Please
TTITLE4=Whisper
TTITLE5=Come To This
TTITLE6=Here
TTITLE7=Faze ( Chopra | )
TTITLE8=Turnaround
TTITLE9=Loud
EXTD=
EXTT0=
EXTT1=
EXTT2=
EXTT3=
EXTT4=
EXTT5=
EXTT6=
EXTT7=
EXTT8=
EXTT9=
PLAYORDER=
